<svg id="Capa_1" data-name="Capa 1" xmlns="http://www.w3.org/2000/svg" viewBox="0 0 1952 438"><defs><style>.cls-1{fill:#0c72e2;}</style></defs><path class="cls-1" d="M226.41,151.93a12,12,0,0,0-9.17-3.61c-7.92,0-12.46,4.79-12.46,13.15V173.1a74.33,74.33,0,0,0-23.94-23.31c-13.21-8-29.25-12.12-47.66-12.12-19.3,0-36.6,4.66-51.44,13.86S55.27,173.8,47.11,190.38s-12.21,36-12.21,57.94c0,22.25,4.1,42.1,12.2,59s19.8,30.39,34.63,39.73,32.14,14.09,51.45,14.09c18.41,0,34.45-4.08,47.66-12.12a73.63,73.63,0,0,0,23.94-23.54V346.7c0,8.36,4.54,13.15,12.46,13.15a12,12,0,0,0,9.17-3.62c2.18-2.33,3.29-5.54,3.29-9.53V161.47c0-4-1.11-7.2-3.29-9.54Zm-21.63,97.26c0,28.15-6.35,50.1-18.85,65.26-12.36,15-30.11,22.56-52.75,22.56s-39.93-7.59-52.75-23.2S61.14,276.2,61.14,248.32c0-27.55,6.48-49.14,19.26-64.14C93,169.33,111,161.8,133.62,161.8s40.3,7.58,52.52,22.54c12.37,15.16,18.64,37,18.64,64.85"/><path class="cls-1" d="M514.49,45.69a12,12,0,0,0-9.18-3.61c-7.91,0-12.45,4.79-12.45,13.15V169.85a74.53,74.53,0,0,0-23.94-23.31c-13.21-8-29.25-12.12-47.67-12.12-19.29,0-36.59,4.66-51.43,13.86s-26.48,22.27-34.63,38.85S323,223.11,323,245.07c0,22.26,4.1,42.1,12.19,59S355,334.45,369.8,343.8s32.14,14.09,51.45,14.09c18.42,0,34.46-4.08,47.67-12.12a73.73,73.73,0,0,0,23.94-23.54v21.22c0,8.35,4.54,13.14,12.45,13.14a12,12,0,0,0,9.18-3.61c2.18-2.33,3.28-5.54,3.28-9.53V55.23c0-4-1.1-7.2-3.28-9.53ZM492.86,245.94c0,28.15-6.35,50.1-18.85,65.26-12.36,15-30.11,22.56-52.76,22.56-22.35,0-40.1-7.81-52.74-23.2C355.71,295,349.22,273,349.22,245.07c0-27.55,6.47-49.13,19.25-64.14,12.65-14.85,30.56-22.38,53.23-22.38s40.3,7.58,52.52,22.54c12.37,15.17,18.64,37,18.64,64.85"/><path class="cls-1" d="M806.35,135.28c-3.57,0-8.44,1.39-11.29,7.92l-82,179.53L631.59,142.21c-1.62-4.75-5.36-7.36-10.53-7.36a13.35,13.35,0,0,0-9.21,3.64,11.9,11.9,0,0,0-4.13,9.07l1,4.54,89,193.54a15.62,15.62,0,0,0,14.81,9.66c6.76,0,12-3.29,15.25-9.63l89.34-193.31.12-.32a16,16,0,0,0,1.05-4.91,11.3,11.3,0,0,0-3.71-8.66,12.14,12.14,0,0,0-8.3-3.19"/><path class="cls-1" d="M1000.28,144.51a15.62,15.62,0,0,0-14.82-9.66c-6.75,0-12,3.29-15.24,9.64l-89.34,193.3-.13.32a16.25,16.25,0,0,0-1,4.91,11.29,11.29,0,0,0,3.72,8.66,12.14,12.14,0,0,0,8.3,3.19c3.57,0,8.43-1.38,11.29-7.92l82-179.52,81.47,180.51c1.61,4.75,5.36,7.36,10.53,7.36a13.37,13.37,0,0,0,9.21-3.64,11.91,11.91,0,0,0,4.13-9.07l-1-4.53Z"/><path class="cls-1" d="M1275.5,134.42c-17.22,0-32.78,3.84-46.25,11.42a71.67,71.67,0,0,0-24.48,22.34V148.42c0-3.93-1-7.09-3-9.42s-5.16-3.72-9-3.72c-7.92,0-12.47,4.79-12.47,13.14V343.88c0,4,1.11,7.21,3.29,9.54a13.48,13.48,0,0,0,18.35,0c2.18-2.33,3.29-5.54,3.29-9.53V230c0-21.74,6.56-39.34,19.52-52.31s30.48-19.55,52.08-19.55c19.18,0,33.18,4.79,41.6,14.24s12.83,25.17,12.83,46.39V343.88c0,4,1.1,7.2,3.28,9.53a12,12,0,0,0,9.18,3.61c7.92,0,12.47-4.79,12.47-13.14V217c0-54.82-27.15-82.61-80.68-82.61"/><path class="cls-1" d="M1627.58,307.44c-1.92,0-5.17.76-13.39,6.7a115.67,115.67,0,0,1-24.2,14.28c-8.2,3.54-18.36,5.34-30.19,5.34-23.26,0-41.62-7.61-54.56-22.62s-19.68-36.64-19.68-63.91c0-27.85,6.71-49.95,19.93-65.67,13.08-15.56,31.5-23.44,54.75-23.44,11.49,0,21.18,1.78,28.8,5.31a127.31,127.31,0,0,1,23.43,14.34c2.39,1.76,4.68,3.33,6.79,4.66a13.33,13.33,0,0,0,7,2.44,10.25,10.25,0,0,0,7.64-3.4,10.92,10.92,0,0,0,3.06-7.59,17,17,0,0,0-4-10.86c-2.37-3-6.36-6.58-12.27-11.16a85.31,85.31,0,0,0-28.35-13.23,126.24,126.24,0,0,0-32.52-4.21c-19.59,0-37.26,4.73-52.51,14.06s-27.24,22.71-35.54,39.74-12.43,36.62-12.43,58.58c0,21.69,4.18,41.18,12.43,57.94s20.2,30.12,35.33,39.3,32.55,13.85,51.84,13.85a115.13,115.13,0,0,0,34-5.32c11.42-3.54,21.21-8.19,29.19-13.92,6.07-4.76,10.1-8.27,12.3-10.75a14.53,14.53,0,0,0,3.9-9.91,10.33,10.33,0,0,0-3.17-7.48,10.49,10.49,0,0,0-7.53-3.07"/><path class="cls-1" d="M1903.23,310.84a10.24,10.24,0,0,0-7.63-3.4c-1.87,0-4.81.8-13.7,6.61a139.36,139.36,0,0,1-26.46,14.34c-8.8,3.57-20.17,5.37-33.78,5.37-24.77,0-44.2-7.35-57.72-21.84-13.06-14-20.06-34.07-20.85-59.74H1891.2c6.3,0,10.68-1.48,13.4-4.53s3.9-7.31,3.9-13.36c0-30.6-8.13-55.13-24.15-72.92s-38.39-27-66.21-27c-19.87,0-37.76,4.73-53.16,14.05a95,95,0,0,0-36,39.5c-8.4,16.77-12.66,36.42-12.66,58.4,0,34.36,9.55,61.82,28.39,81.61s45.06,29.91,77.81,29.91c23.07,0,45.68-6.39,67.27-19,6-3.68,10-7,12.47-10a16.46,16.46,0,0,0,4-10.43,10.87,10.87,0,0,0-3.06-7.58ZM1766.5,177.24c13-13,30.33-19.56,51.64-19.56,20.65,0,36.88,6.4,48.22,19,10.91,12.14,17,29.7,18,52.23H1743.83c2.67-21.9,10.29-39.27,22.67-51.67Z"/><path class="cls-1" d="M985,313.36c-5.83,0-11.74,3.61-11.74,10.5v48.21c0,6.89,5.91,10.5,11.75,10.5s11.74-3.61,11.74-10.5V323.86c0-6.89-5.92-10.5-11.75-10.5"/></svg>